<svg version="1.1" xmlns="http://www.w3.org/2000/svg" viewBox="-263.16799850463866 -1011.7120239257813 3572.736181640625 2312.192041015625"><desc>Created with Snap</desc><defs></defs><g><rect x="-263.16799850463866" y="-1011.7120239257813" width="3572.736181640625" height="2312.192041015625" fill="#77b6ea" style=""></rect><g><g transform="matrix(1.024,0,0,-1.024,0,0)"><path d="M511 650L532 466L479 460L459 599L185 599L185 328L491 328L491 277L185 277L185 51L302 51L302 0L43 0L43 51L128 51L128 599L43 599L43 650L511 650ZM796 46L796 0L577 0L577 46L659 46L659 642L576 642L576 688L714 688L714 46L796 46ZM1356 46L1356 0L1218 0L1218 88Q1197 44 1156 17Q1115 -10 1061 -10Q995 -10 951 31Q907 72 907 163L907 397L825 397L825 444L962 444L962 176Q962 100 994 69Q1027 39 1077 39Q1137 39 1176 86Q1216 133 1218 181L1218 397L1120 397L1120 444L1273 444L1273 46L1356 46ZM1685 129L1728 115Q1708 -10 1593 -10Q1528 -10 1495 28Q1463 66 1463 130L1463 397L1390 397L1390 444L1463 444L1463 588L1518 588L1518 444L1695 444L1695 397L1518 397L1518 136Q1518 92 1536 65Q1554 39 1599 39Q1628 39 1651 56Q1674 74 1685 129ZM2049 129L2092 115Q2072 -10 1957 -10Q1892 -10 1859 28Q1827 66 1827 130L1827 397L1754 397L1754 444L1827 444L1827 588L1882 588L1882 444L2059 444L2059 397L1882 397L1882 136Q1882 92 1900 65Q1918 39 1963 39Q1992 39 2015 56Q2038 74 2049 129ZM2481 135L2527 124Q2517 68 2471 29Q2425 -10 2347 -10Q2254 -10 2198 50Q2142 110 2142 216Q2142 320 2196 386Q2250 453 2341 453Q2432 453 2477 393Q2523 334 2523 258Q2523 236 2518 208L2200 208Q2202 128 2241 83Q2280 39 2351 39Q2456 39 2481 135ZM2201 254L2465 254Q2470 307 2439 355Q2408 404 2338 404Q2271 404 2239 359Q2208 314 2201 254ZM2843 452Q2890 452 2916 429L2932 330L2886 324L2869 400Q2854 404 2835 404Q2791 404 2763 367Q2735 330 2735 273L2735 46L2844 46L2844 0L2597 0L2597 46L2680 46L2680 397L2596 397L2596 444L2732 444L2732 365Q2745 402 2776 427Q2807 452 2843 452Z" fill="#292929" style=""></path></g></g><g transform="matrix(1,0,0,1,296.448,983.04)"><g transform="matrix(1.024,0,0,-1.024,0,0)"><path d="M695 650L695 599L611 599L611 0L572 0L187 538L183 538L183 51L290 51L290 0L51 0L51 51L128 51L128 599L41 599L41 650L171 650L552 118L556 118L556 599L457 599L457 650L695 650ZM1113 135L1159 124Q1149 68 1103 29Q1057 -10 979 -10Q886 -10 830 50Q774 110 774 216Q774 320 828 386Q882 453 973 453Q1064 453 1109 393Q1155 334 1155 258Q1155 236 1150 208L832 208Q834 128 873 83Q912 39 983 39Q1088 39 1113 135ZM833 254L1097 254Q1102 307 1071 355Q1040 404 970 404Q903 404 871 359Q840 314 833 254ZM1956 444L1956 397L1902 397L1769 0L1726 0L1585 358L1581 358L1440 0L1399 0L1260 397L1209 397L1209 444L1411 444L1411 397L1320 397L1423 88L1427 88L1566 444L1605 444L1748 87L1753 87L1847 397L1760 397L1760 444L1956 444ZM2355 126Q2355 64 2302 27Q2250 -10 2173 -10Q2126 -10 2080 3Q2035 17 2011 34L2023 128L2068 124L2064 64Q2111 39 2171 39Q2220 39 2259 58Q2299 78 2299 120Q2299 160 2270 177Q2242 194 2200 201Q2158 209 2116 218Q2075 227 2046 251Q2018 275 2018 326Q2018 394 2067 423Q2116 453 2174 453Q2220 453 2260 440Q2301 427 2326 412L2336 310L2290 304L2278 379Q2257 390 2234 397Q2211 404 2181 404Q2134 404 2105 387Q2076 370 2076 332Q2076 294 2104 278Q2132 263 2174 256Q2216 249 2257 239Q2299 229 2327 204Q2355 179 2355 126Z" fill="#292929" style=""></path></g></g></g></svg>